<svg height="512pt" viewBox="0 -48 512 512" width="512pt" xmlns="http://www.w3.org/2000/svg"><path d="m504.429688 344.152344v64.113281h-496.863282v-64.113281h184.320313l8.015625 32.054687h112.195312l8.011719-32.054687zm0 0" fill="#e9edf5"/><path d="m7.566406 344.152344h64.113282v64.113281h-64.113282zm0 0" fill="#cdd2e1"/><path d="m63.664062 39.625h384.671876v272.472656h-384.671876zm0 0" fill="#96e8ff"/><path d="m480.390625 7.566406v336.585938h-160.28125l-8.011719 32.054687h-112.195312l-8.015625-32.054687h-160.277344v-336.585938zm-32.054687 304.53125v-272.472656h-384.671876v272.472656zm0 0" fill="#afb4c8"/><path d="m63.664062 39.625h56.097657v272.472656h-56.097657zm0 0" fill="#19cffc"/><path d="m232.929688 272.195312-11.332032 11.332032-39.667968-39.667969 62.332031-62.332031 11.335937 11.332031zm0 0" fill="#e9edf5"/><path d="m136.59375 232.527344 17-17 22.667969 22.664062-17 17zm0 0" fill="#cdd2e1"/><path d="m210.261719 147.527344-62.332031 62.332031-39.667969-39.664063 11.335937-11.335937 79.332032-22.667969zm0 0" fill="#e9edf5"/><path d="m244.261719 181.527344-62.332031 62.332031-5.667969-5.664063-22.664063-22.667968-5.667968-5.667969 90.667968-90.667969 34 34.003906zm0 0" fill="#95e8c8"/><path d="m289.597656 113.527344-17 39.667968-34-34.003906 39.664063-17zm0 0" fill="#e9edf5"/><path d="m238.597656 119.191406 17 17-90.667968 90.664063-17-17zm0 0" fill="#06ccab"/><path d="m127.777344 368.640625h16.027344v15.136719h-16.027344zm0 0" fill="#fff"/><path d="m368.195312 368.640625h16.027344v15.136719h-16.027344zm0 0" fill="#fff"/><path d="m298.75 194.546875 10.703125 10.703125-16.027344 16.027344-10.703125-10.703125zm0 0" fill="#fff"/><path d="m202.574219 66.324219 10.703125 10.703125-16.027344 16.027344-10.703125-10.703126zm0 0" fill="#fff"/><path d="m423.847656 127.777344h-15.136718v-48.53125h-24.488282v-15.132813h39.625zm0 0" fill="#fff"/><path d="m408.710938 175.859375h15.136718v16.027344h-15.136718zm0 0" fill="#fff"/><g fill="#231f20"><path d="m95.722656 368.640625h16.027344v15.136719h-16.027344zm0 0"/><path d="m400.25 368.640625h16.027344v15.136719h-16.027344zm0 0"/><path d="m487.957031 336.585938v-336.585938h-360.179687v15.136719h345.042968v321.449219h-158.617187l-8.015625 32.054687h-100.375l-4.230469-16.917969h86.472657v-15.136718h-248.878907v-321.449219h64.558594v-15.136719h-79.691406v336.585938h-24.042969v79.246093h512v-79.246093zm-472.820312 64.109374v-16.917968h64.554687v-15.136719h-64.554687v-16.921875h170.84375l8.011719 32.058594h124.011718l8.015625-32.058594h170.84375v16.921875h-64.558593v15.136719h64.558593v16.917968zm0 0"/><path d="m384.222656 319.664062h71.679688v-287.609374h-399.804688v287.609374h304.082032v-15.132812h-288.945313v-257.339844h369.53125v257.339844h-56.542969zm0 0"/><path d="m279.992188 93.21875-39.667969 17-1.726563-1.726562-28.335937 28.332031-9.128907-9.128907-55.535156 15.867188 19.015625-19.015625-10.703125-10.703125-56.351562 56.351562 45.332031 45.332032-17 17 33.371094 33.371094 17-17 45.332031 45.332031 56.355469-56.351563-10.703125-10.703125-19.015625 19.015625 15.867187-55.53125-9.132812-9.132812 28.335937-28.332032-1.730469-1.730468 17-39.667969zm-3.457032 17.949219 4.085938 4.085937-10.578125 24.683594-18.191407-18.191406zm-152.972656 54.429687 73.164062-20.902344 2.832032 2.832032-51.628906 51.628906-28.964844-28.964844zm35.699219 78.894532-11.960938-11.964844 6.296875-6.296875 11.960938 11.964843zm87.835937-49.429688-20.90625 73.167969-4.59375 4.59375-28.964844-28.964844 51.628907-51.628906zm-65.167968 38.09375-23.296876-23.296875 79.964844-79.964844 23.296875 23.296875zm0 0"/><path d="m349.507812 197.234375-16.027343 16.027344-10.703125-10.703125 16.027344-16.027344zm0 0"/><path d="m162.503906 74.339844 10.703125 10.703125-16.027343 16.027343-10.703126-10.703124zm0 0"/><path d="m408.710938 143.804688h15.136718v16.027343h-15.136718zm0 0"/><path d="m408.710938 207.917969h15.136718v16.027343h-15.136718zm0 0"/></g><path d="m127.777344 287.609375h-39.625v-31.609375h15.136718v16.472656h24.488282zm0 0" fill="#fff"/></svg>